<svg width="17" height="16" viewBox="0 0 17 16" fill="none" xmlns="http://www.w3.org/2000/svg">
<path d="M11.6077 5.5C12.8049 5.5 13.9531 5.97411 14.7996 6.81802C15.6462 7.66193 16.1217 8.80653 16.1217 10V15.25H13.1124V10C13.1124 9.60218 12.9538 9.22064 12.6717 8.93934C12.3895 8.65804 12.0068 8.5 11.6077 8.5C11.2086 8.5 10.8259 8.65804 10.5437 8.93934C10.2615 9.22064 10.103 9.60218 10.103 10V15.25H7.09363V10C7.09363 8.80653 7.56921 7.66193 8.41576 6.81802C9.26231 5.97411 10.4105 5.5 11.6077 5.5V5.5Z" stroke="white" stroke-linecap="round" stroke-linejoin="round"/>
<path d="M4.08432 6.25H1.07495V15.25H4.08432V6.25Z" stroke="white" stroke-linecap="round" stroke-linejoin="round"/>
<path d="M2.57964 4C3.41065 4 4.08432 3.32843 4.08432 2.5C4.08432 1.67157 3.41065 1 2.57964 1C1.74862 1 1.07495 1.67157 1.07495 2.5C1.07495 3.32843 1.74862 4 2.57964 4Z" stroke="white" stroke-linecap="round" stroke-linejoin="round"/>
</svg>
